REM DIRINDEX 1\2\4,1\2\5,1\2\6,1\2\7,1\3\8,1\3\9
REM DIRNAME cjc037,folder01,folder02,folder03,folder04,folder05,folder06,folder07,folder08
TITLE ""
FILE "Disc2Track14.mp3" MP3
  TRACK 01 AUDIO
    TITLE "0:"
    INDEX 01 00:00:00
  TRACK 02 AUDIO
    TITLE "8:cjc037_1347"
    INDEX 01 00:00:05
  TRACK 03 AUDIO
    TITLE "0:"
    INDEX 01 00:01:54
  TRACK 04 AUDIO
    TITLE "9:cjc037_1348"
    INDEX 01 00:01:60
  TRACK 05 AUDIO
    TITLE "0:"
    INDEX 01 00:04:27
  TRACK 06 AUDIO
    TITLE "8:cjc037_1349"
    INDEX 01 00:06:61
  TRACK 07 AUDIO
    TITLE "0:"
    INDEX 01 00:08:17
  TRACK 08 AUDIO
    TITLE "9:cjc037_1350"
    INDEX 01 00:08:24
  TRACK 09 AUDIO
    TITLE "0:"
    INDEX 01 00:10:18
  TRACK 10 AUDIO
    TITLE "8:cjc037_1351"
    INDEX 01 00:12:54
  TRACK 11 AUDIO
    TITLE "0:"
    INDEX 01 00:14:23
  TRACK 12 AUDIO
    TITLE "9:cjc037_1352"
    INDEX 01 00:14:29
  TRACK 13 AUDIO
    TITLE "0:"
    INDEX 01 00:17:25
  TRACK 14 AUDIO
    TITLE "8:cjc037_1353"
    INDEX 01 00:19:60
  TRACK 15 AUDIO
    TITLE "0:"
    INDEX 01 00:21:29
  TRACK 16 AUDIO
    TITLE "9:cjc037_1354"
    INDEX 01 00:21:33
  TRACK 17 AUDIO
    TITLE "0:"
    INDEX 01 00:23:53
  TRACK 18 AUDIO
    TITLE "8:cjc037_1355"
    INDEX 01 00:26:13
  TRACK 19 AUDIO
    TITLE "0:"
    INDEX 01 00:27:67
  TRACK 20 AUDIO
    TITLE "9:cjc037_1356"
    INDEX 01 00:27:71
  TRACK 21 AUDIO
    TITLE "0:"
    INDEX 01 00:30:18
  TRACK 22 AUDIO
    TITLE "8:cjc037_1357"
    INDEX 01 00:32:50
  TRACK 23 AUDIO
    TITLE "0:"
    INDEX 01 00:34:22
  TRACK 24 AUDIO
    TITLE "9:cjc037_1358"
    INDEX 01 00:34:28
  TRACK 25 AUDIO
    TITLE "0:"
    INDEX 01 00:36:70
  TRACK 26 AUDIO
    TITLE "8:cjc037_1359"
    INDEX 01 00:39:27
  TRACK 27 AUDIO
    TITLE "0:"
    INDEX 01 00:41:02
  TRACK 28 AUDIO
    TITLE "9:cjc037_1360"
    INDEX 01 00:41:10
  TRACK 29 AUDIO
    TITLE "0:"
    INDEX 01 00:42:70
  TRACK 30 AUDIO
    TITLE "8:cjc037_1361"
    INDEX 01 00:45:32
  TRACK 31 AUDIO
    TITLE "0:"
    INDEX 01 00:47:09
  TRACK 32 AUDIO
    TITLE "9:cjc037_1362"
    INDEX 01 00:47:13
  TRACK 33 AUDIO
    TITLE "0:"
    INDEX 01 00:49:41
  TRACK 34 AUDIO
    TITLE "8:cjc037_1363"
    INDEX 01 00:52:00
  TRACK 35 AUDIO
    TITLE "0:"
    INDEX 01 00:53:49
  TRACK 36 AUDIO
    TITLE "9:cjc037_1364"
    INDEX 01 00:53:57
  TRACK 37 AUDIO
    TITLE "0:"
    INDEX 01 00:56:10
  TRACK 38 AUDIO
    TITLE "8:cjc037_1365"
    INDEX 01 00:58:46
  TRACK 39 AUDIO
    TITLE "0:"
    INDEX 01 01:00:17
  TRACK 40 AUDIO
    TITLE "9:cjc037_1366"
    INDEX 01 01:00:23
  TRACK 41 AUDIO
    TITLE "0:"
    INDEX 01 01:04:01
  TRACK 42 AUDIO
    TITLE "8:cjc037_1367"
    INDEX 01 01:06:36
  TRACK 43 AUDIO
    TITLE "0:"
    INDEX 01 01:08:11
  TRACK 44 AUDIO
    TITLE "9:cjc037_1368"
    INDEX 01 01:08:15
  TRACK 45 AUDIO
    TITLE "0:"
    INDEX 01 01:10:55
  TRACK 46 AUDIO
    TITLE "8:cjc037_1369"
    INDEX 01 01:13:12
  TRACK 47 AUDIO
    TITLE "0:"
    INDEX 01 01:14:49
  TRACK 48 AUDIO
    TITLE "9:cjc037_1370"
    INDEX 01 01:14:53
  TRACK 49 AUDIO
    TITLE "0:"
    INDEX 01 01:16:26
  TRACK 50 AUDIO
    TITLE "8:cjc037_1371"
    INDEX 01 01:18:62
  TRACK 51 AUDIO
    TITLE "0:"
    INDEX 01 01:20:36
  TRACK 52 AUDIO
    TITLE "9:cjc037_1372"
    INDEX 01 01:20:40
  TRACK 53 AUDIO
    TITLE "0:"
    INDEX 01 01:23:05
  TRACK 54 AUDIO
    TITLE "8:cjc037_1373"
    INDEX 01 01:25:41
  TRACK 55 AUDIO
    TITLE "0:"
    INDEX 01 01:27:20
  TRACK 56 AUDIO
    TITLE "9:cjc037_1374"
    INDEX 01 01:27:26
  TRACK 57 AUDIO
    TITLE "0:"
    INDEX 01 01:30:56
  TRACK 58 AUDIO
    TITLE "8:cjc037_1375"
    INDEX 01 01:33:15
  TRACK 59 AUDIO
    TITLE "0:"
    INDEX 01 01:34:65
  TRACK 60 AUDIO
    TITLE "9:cjc037_1376"
    INDEX 01 01:34:71
  TRACK 61 AUDIO
    TITLE "0:"
    INDEX 01 01:38:34
  TRACK 62 AUDIO
    TITLE "8:cjc037_1377"
    INDEX 01 01:40:66
  TRACK 63 AUDIO
    TITLE "0:"
    INDEX 01 01:42:37
  TRACK 64 AUDIO
    TITLE "9:cjc037_1378"
    INDEX 01 01:42:43
  TRACK 65 AUDIO
    TITLE "0:"
    INDEX 01 01:45:32
  TRACK 66 AUDIO
    TITLE "8:cjc037_1379"
    INDEX 01 01:47:64
  TRACK 67 AUDIO
    TITLE "0:"
    INDEX 01 01:49:41
  TRACK 68 AUDIO
    TITLE "9:cjc037_1380"
    INDEX 01 01:49:49
  TRACK 69 AUDIO
    TITLE "0:"
    INDEX 01 01:52:44
